<?xml version="1.0" ?>
<!-- Uploaded to: SVG Repo, www.svgrepo.com, Generator: SVG Repo Mixer Tools -->
<svg fill="#000000" width="800px" height="800px" viewBox="0 0 500 500" id="Layer_1" version="1.1" xml:space="preserve" xmlns="http://www.w3.org/2000/svg" xmlns:xlink="http://www.w3.org/1999/xlink">
<g id="tower">
<g>
<path d="M252.5,39.63h-4.99V18.3c0-0.43,0.35-0.79,0.79-0.79h3.42c0.43,0,0.79,0.35,0.79,0.79V39.63z"/>
<g>
<path d="M260.45,60.29h-20.89c-1.62,0-3.17-0.7-4.24-1.92s-1.56-2.84-1.35-4.45l1.55-11.88c0.37-2.8,2.77-4.91,5.59-4.91h17.79     c2.82,0,5.23,2.11,5.59,4.91l1.55,11.88c0.21,1.61-0.28,3.23-1.35,4.45S262.07,60.29,260.45,60.29z M241.1,42.13     c-0.32,0-0.59,0.24-0.63,0.56l-1.55,11.88c-0.03,0.24,0.07,0.41,0.15,0.51c0.09,0.1,0.24,0.22,0.48,0.22h20.89     c0.24,0,0.39-0.12,0.48-0.22c0.09-0.1,0.18-0.27,0.15-0.5l-1.55-11.88c-0.04-0.32-0.31-0.56-0.63-0.56H241.1z"/>
</g>
</g>
<g>
<g>
<path d="M324.34,382.84H175.66c-3.05,0-5.53-2.48-5.53-5.53v-15.86c0-3.05,2.48-5.53,5.53-5.53h148.68     c3.05,0,5.53,2.48,5.53,5.53v15.86C329.87,380.36,327.39,382.84,324.34,382.84z M175.66,360.93c-0.29,0-0.53,0.24-0.53,0.53     v15.86c0,0.29,0.24,0.53,0.53,0.53h148.68c0.29,0,0.53-0.24,0.53-0.53v-15.86c0-0.29-0.24-0.53-0.53-0.53H175.66z"/>
</g>
</g>
<path d="M276.3,218.16l-23.59-22.29l17.11-16.17c-0.11-0.75-0.22-1.5-0.33-2.25c0,0,0,0,0-0.01c-0.15-1.01-0.3-2.02-0.44-3.02   l-16.37-15.85l12.69-12.29c-0.09-0.79-0.18-1.55-0.27-2.33c0,0,0,0,0-0.01c-0.11-0.98-0.23-1.97-0.34-2.94l-12.11-11.87l9.91-9.71   c-0.07-0.8-0.15-1.61-0.22-2.4c0,0,0,0,0,0c-0.08-0.93-0.16-1.84-0.24-2.76l-9.4-8.64l8.13-7.52c-0.06-0.81-0.11-1.6-0.16-2.39   c0,0,0,0,0,0c-0.06-0.93-0.13-1.85-0.18-2.75l-7.73-7.36l6.92-6.69c-0.04-0.85-0.08-1.68-0.12-2.48c0,0,0,0,0,0   c-0.04-0.95-0.08-1.87-0.12-2.76l-6.81-6.81l6.38-6.38c-0.03-1.69-0.04-2.59-0.04-2.67l-0.03-0.03h-2.52L250,64.23l-6.44-6.44   h-2.52l-0.03,0.03c0,0.08-0.01,0.98-0.04,2.67l6.38,6.38l-6.81,6.81c-0.04,0.89-0.08,1.81-0.12,2.76c0,0,0,0,0,0   c-0.04,0.8-0.08,1.62-0.12,2.46l7.06,6.73l-7.89,7.63c-0.06,0.85-0.11,1.71-0.17,2.58c0,0.07-0.01,0.14-0.01,0.21   c-0.05,0.72-0.1,1.45-0.15,2.19l8.06,7.41l-9.32,8.62c-0.08,0.91-0.16,1.83-0.24,2.77c0,0,0,0,0,0c-0.07,0.79-0.14,1.59-0.22,2.4   l9.91,9.71l-12.11,11.87c-0.11,0.97-0.22,1.96-0.34,2.94c0,0,0,0,0,0.01c-0.09,0.78-0.18,1.55-0.27,2.33l12.69,12.29l-16.37,15.85   c-0.14,1-0.29,2.01-0.44,3.02c0,0,0,0,0,0.01c-0.11,0.75-0.22,1.49-0.33,2.25l17.11,16.17l-23.59,22.29l-1.19,6.26l27.5-25.99   l27.5,25.99L276.3,218.16z M243.1,76.41l6.9-6.9l6.91,6.91l-6.85,6.62L243.1,76.41z M242.12,95.91l7.96-7.7l7.87,7.5l-8,7.4   L242.12,95.91z M240.35,117.08l9.61-8.89l9.68,8.9l-9.65,9.46L240.35,117.08z M237.57,143.95L250,131.77l12.43,12.19L250,155.99   L237.57,143.95z M233.21,177.44L250,161.18l16.79,16.25L250,193.3L233.21,177.44z"/>
<g>
<path d="M293.32,294.55h-86.64c-3.05,0-5.53-2.48-5.53-5.53v-15.86c0-3.05,2.48-5.53,5.53-5.53h86.64c3.05,0,5.53,2.48,5.53,5.53    v15.86C298.85,292.08,296.37,294.55,293.32,294.55z M206.68,272.64c-0.29,0-0.53,0.24-0.53,0.53v15.86c0,0.29,0.24,0.53,0.53,0.53    h86.64c0.29,0,0.53-0.24,0.53-0.53v-15.86c0-0.29-0.24-0.53-0.53-0.53H206.68z"/>
</g>
<g>
<g>
<path d="M277.13,360.68h-54.26l0.81-3.13c4.95-19.17,9.7-41.96,13.74-65.91l0.35-2.08h24.47l0.35,2.08     c4.03,23.96,8.78,46.75,13.74,65.91L277.13,360.68z M229.32,355.68h41.36c-4.56-18.06-8.91-39.07-12.67-61.12h-16.01     C238.23,316.6,233.88,337.61,229.32,355.68z"/>
</g>
<g>
<path d="M259.57,272.64h-19.13l0.42-2.86c2.64-18.01,4.81-36.1,6.47-53.76l0.11-1.14l2.57-1.83l2.57,1.83l0.11,1.14     c1.65,17.66,3.83,35.75,6.47,53.76L259.57,272.64z M246.21,267.64h7.57c-1.4-9.75-2.67-19.51-3.79-29.2     C248.88,248.13,247.61,257.89,246.21,267.64z"/>
</g>
</g>
<g>
<path d="M290.79,272.64h-81.58l0.77-3.1c27.65-111.58,28.53-210.77,28.54-211.76l0.01-2.49h22.94l0.01,2.49    c0.01,0.99,0.89,100.18,28.54,211.76L290.79,272.64z M215.59,267.64h68.81c-24.66-101.09-27.56-191.39-27.89-207.35h-13.04    C243.15,76.24,240.25,166.55,215.59,267.64z"/>
</g>
<g>
<g>
<path d="M315.02,360.93H181.35l1.3-3.39c0.82-2.15,1.64-4.28,2.43-6.41c6.98-18.84,13.44-38.94,19.19-59.74l0.51-1.83h90.47     l0.51,1.83c5.75,20.79,12.2,40.89,19.19,59.74l0,0c0.79,2.13,1.6,4.26,2.42,6.38l1.3,3.39L315.02,360.93z M188.61,355.93h122.78     c-0.39-1.02-0.77-2.04-1.15-3.07c-6.83-18.42-13.15-38.03-18.81-58.3h-82.86c-5.66,20.28-11.98,39.88-18.81,58.3     C189.38,353.88,189,354.9,188.61,355.93z"/>
</g>
<g>
<path d="M387.47,484.98h-72.23l0.53-2.95c0.73-4.01,1.09-8.04,1.09-12c0-36.87-29.99-66.86-66.86-66.86s-66.86,29.99-66.86,66.86     c0,3.95,0.37,7.99,1.09,12l0.53,2.95h-72.23l3.11-4.03c21.99-28.48,41.57-62.66,58.18-101.59l0.65-1.52h151.06l0.65,1.52     c16.61,38.93,36.19,73.11,58.18,101.59L387.47,484.98z M321.16,479.98h56.17c-20.72-27.61-39.24-60.26-55.1-97.14H177.77     c-15.86,36.88-34.38,69.53-55.1,97.14h56.17c-0.47-3.33-0.7-6.66-0.7-9.94c0-39.62,32.24-71.86,71.86-71.86     s71.86,32.24,71.86,71.86C321.86,473.32,321.63,476.66,321.16,479.98z"/>
</g>
</g>
</g>
</svg>